<mxfile host="app.diagrams.net" agent="Mozilla/5.0 (Windows NT 10.0; Win64; x64) AppleWebKit/537.36 (KHTML, like Gecko) Chrome/130.0.0.0 Safari/537.36" version="24.8.3" pages="2">
  <diagram name="white-bg" id="m9KfXCPVGnRiRk0QAELM">
    <mxGraphModel dx="794" dy="500" grid="0" gridSize="10" guides="1" tooltips="1" connect="1" arrows="1" fold="1" page="1" pageScale="1" pageWidth="827" pageHeight="336" math="0" shadow="0">
      <root>
        <mxCell id="0" />
        <mxCell id="1" parent="0" />
        <mxCell id="JgNRl92uMtbdNUEpQfKq-14" value="" style="shape=table;startSize=0;container=1;collapsible=0;childLayout=tableLayout;fontSize=16;sketch=1;curveFitting=1;jiggle=2;swimlaneLine=1;shadow=0;rounded=0;fontFamily=Patrick Hand;fontSource=https%3A%2F%2Ffonts.googleapis.com%2Fcss%3Ffamily%3DPatrick%2BHand;strokeColor=#333333;fillColor=none;strokeWidth=2;" vertex="1" parent="1">
          <mxGeometry x="477" y="78" width="250" height="200" as="geometry" />
        </mxCell>
        <mxCell id="JgNRl92uMtbdNUEpQfKq-15" value="" style="shape=tableRow;horizontal=0;startSize=0;swimlaneHead=0;swimlaneBody=0;strokeColor=inherit;top=0;left=0;bottom=0;right=0;collapsible=0;dropTarget=0;fillColor=none;points=[[0,0.5],[1,0.5]];portConstraint=eastwest;fontSize=16;" vertex="1" parent="JgNRl92uMtbdNUEpQfKq-14">
          <mxGeometry width="250" height="48" as="geometry" />
        </mxCell>
        <mxCell id="JgNRl92uMtbdNUEpQfKq-16" value="to" style="shape=partialRectangle;html=1;whiteSpace=wrap;connectable=0;strokeColor=inherit;overflow=hidden;fillColor=none;top=0;left=0;bottom=0;right=0;pointerEvents=1;fontSize=18;fontFamily=Patrick Hand;fontSource=https%3A%2F%2Ffonts.googleapis.com%2Fcss%3Ffamily%3DPatrick%2BHand;fontStyle=1" vertex="1" parent="JgNRl92uMtbdNUEpQfKq-15">
          <mxGeometry width="50" height="48" as="geometry">
            <mxRectangle width="50" height="48" as="alternateBounds" />
          </mxGeometry>
        </mxCell>
        <mxCell id="JgNRl92uMtbdNUEpQfKq-17" value="from" style="shape=partialRectangle;html=1;whiteSpace=wrap;connectable=0;strokeColor=inherit;overflow=hidden;fillColor=none;top=0;left=0;bottom=0;right=0;pointerEvents=1;fontSize=18;fontFamily=Patrick Hand;fontSource=https%3A%2F%2Ffonts.googleapis.com%2Fcss%3Ffamily%3DPatrick%2BHand;fontStyle=1" vertex="1" parent="JgNRl92uMtbdNUEpQfKq-15">
          <mxGeometry x="50" width="50" height="48" as="geometry">
            <mxRectangle width="50" height="48" as="alternateBounds" />
          </mxGeometry>
        </mxCell>
        <mxCell id="JgNRl92uMtbdNUEpQfKq-64" value="..." style="shape=partialRectangle;html=1;whiteSpace=wrap;connectable=0;strokeColor=inherit;overflow=hidden;fillColor=none;top=0;left=0;bottom=0;right=0;pointerEvents=1;fontSize=18;fontFamily=Patrick Hand;fontSource=https%3A%2F%2Ffonts.googleapis.com%2Fcss%3Ffamily%3DPatrick%2BHand;fontStyle=1" vertex="1" parent="JgNRl92uMtbdNUEpQfKq-15">
          <mxGeometry x="100" width="40" height="48" as="geometry">
            <mxRectangle width="40" height="48" as="alternateBounds" />
          </mxGeometry>
        </mxCell>
        <mxCell id="JgNRl92uMtbdNUEpQfKq-18" value="geometry" style="shape=partialRectangle;html=1;whiteSpace=wrap;connectable=0;strokeColor=inherit;overflow=hidden;fillColor=none;top=0;left=0;bottom=0;right=0;pointerEvents=1;fontSize=18;fontFamily=Patrick Hand;fontSource=https%3A%2F%2Ffonts.googleapis.com%2Fcss%3Ffamily%3DPatrick%2BHand;fontStyle=1" vertex="1" parent="JgNRl92uMtbdNUEpQfKq-15">
          <mxGeometry x="140" width="110" height="48" as="geometry">
            <mxRectangle width="110" height="48" as="alternateBounds" />
          </mxGeometry>
        </mxCell>
        <mxCell id="JgNRl92uMtbdNUEpQfKq-19" value="" style="shape=tableRow;horizontal=0;startSize=0;swimlaneHead=0;swimlaneBody=0;strokeColor=inherit;top=0;left=0;bottom=0;right=0;collapsible=0;dropTarget=0;fillColor=none;points=[[0,0.5],[1,0.5]];portConstraint=eastwest;fontSize=16;" vertex="1" parent="JgNRl92uMtbdNUEpQfKq-14">
          <mxGeometry y="48" width="250" height="38" as="geometry" />
        </mxCell>
        <mxCell id="JgNRl92uMtbdNUEpQfKq-20" value="1" style="shape=partialRectangle;html=1;whiteSpace=wrap;connectable=0;strokeColor=inherit;overflow=hidden;fillColor=#FFA35C;top=0;left=0;bottom=0;right=0;pointerEvents=1;fontSize=16;fontFamily=Patrick Hand;fontSource=https%3A%2F%2Ffonts.googleapis.com%2Fcss%3Ffamily%3DPatrick%2BHand;sketch=1;curveFitting=1;jiggle=2;fontStyle=1" vertex="1" parent="JgNRl92uMtbdNUEpQfKq-19">
          <mxGeometry width="50" height="38" as="geometry">
            <mxRectangle width="50" height="38" as="alternateBounds" />
          </mxGeometry>
        </mxCell>
        <mxCell id="JgNRl92uMtbdNUEpQfKq-21" value="2" style="shape=partialRectangle;html=1;whiteSpace=wrap;connectable=0;strokeColor=inherit;overflow=hidden;fillColor=#8500FF;top=0;left=0;bottom=0;right=0;pointerEvents=1;fontSize=16;fontFamily=Patrick Hand;fontSource=https%3A%2F%2Ffonts.googleapis.com%2Fcss%3Ffamily%3DPatrick%2BHand;sketch=1;curveFitting=1;jiggle=2;fillStyle=hachure;fontStyle=1" vertex="1" parent="JgNRl92uMtbdNUEpQfKq-19">
          <mxGeometry x="50" width="50" height="38" as="geometry">
            <mxRectangle width="50" height="38" as="alternateBounds" />
          </mxGeometry>
        </mxCell>
        <mxCell id="JgNRl92uMtbdNUEpQfKq-65" style="shape=partialRectangle;html=1;whiteSpace=wrap;connectable=0;strokeColor=inherit;overflow=hidden;fillColor=none;top=0;left=0;bottom=0;right=0;pointerEvents=1;fontSize=16;fontFamily=Patrick Hand;fontSource=https%3A%2F%2Ffonts.googleapis.com%2Fcss%3Ffamily%3DPatrick%2BHand;" vertex="1" parent="JgNRl92uMtbdNUEpQfKq-19">
          <mxGeometry x="100" width="40" height="38" as="geometry">
            <mxRectangle width="40" height="38" as="alternateBounds" />
          </mxGeometry>
        </mxCell>
        <mxCell id="JgNRl92uMtbdNUEpQfKq-22" value="LINESTRING(...)" style="shape=partialRectangle;html=1;whiteSpace=wrap;connectable=0;strokeColor=inherit;overflow=hidden;fillColor=none;top=0;left=0;bottom=0;right=0;pointerEvents=1;fontSize=16;fontFamily=Patrick Hand;fontSource=https%3A%2F%2Ffonts.googleapis.com%2Fcss%3Ffamily%3DPatrick%2BHand;" vertex="1" parent="JgNRl92uMtbdNUEpQfKq-19">
          <mxGeometry x="140" width="110" height="38" as="geometry">
            <mxRectangle width="110" height="38" as="alternateBounds" />
          </mxGeometry>
        </mxCell>
        <mxCell id="JgNRl92uMtbdNUEpQfKq-23" value="" style="shape=tableRow;horizontal=0;startSize=0;swimlaneHead=0;swimlaneBody=0;strokeColor=inherit;top=0;left=0;bottom=0;right=0;collapsible=0;dropTarget=0;fillColor=none;points=[[0,0.5],[1,0.5]];portConstraint=eastwest;fontSize=16;" vertex="1" parent="JgNRl92uMtbdNUEpQfKq-14">
          <mxGeometry y="86" width="250" height="38" as="geometry" />
        </mxCell>
        <mxCell id="JgNRl92uMtbdNUEpQfKq-24" value="1" style="shape=partialRectangle;html=1;whiteSpace=wrap;connectable=0;strokeColor=inherit;overflow=hidden;fillColor=#FFA35C;top=0;left=0;bottom=0;right=0;pointerEvents=1;fontSize=16;fontFamily=Patrick Hand;fontSource=https%3A%2F%2Ffonts.googleapis.com%2Fcss%3Ffamily%3DPatrick%2BHand;sketch=1;curveFitting=1;jiggle=2;fontStyle=1" vertex="1" parent="JgNRl92uMtbdNUEpQfKq-23">
          <mxGeometry width="50" height="38" as="geometry">
            <mxRectangle width="50" height="38" as="alternateBounds" />
          </mxGeometry>
        </mxCell>
        <mxCell id="JgNRl92uMtbdNUEpQfKq-25" value="3" style="shape=partialRectangle;html=1;whiteSpace=wrap;connectable=0;strokeColor=inherit;overflow=hidden;fillColor=#66CC00;top=0;left=0;bottom=0;right=0;pointerEvents=1;fontSize=16;fontFamily=Patrick Hand;fontSource=https%3A%2F%2Ffonts.googleapis.com%2Fcss%3Ffamily%3DPatrick%2BHand;sketch=1;curveFitting=1;jiggle=2;fillStyle=hachure;fontStyle=1" vertex="1" parent="JgNRl92uMtbdNUEpQfKq-23">
          <mxGeometry x="50" width="50" height="38" as="geometry">
            <mxRectangle width="50" height="38" as="alternateBounds" />
          </mxGeometry>
        </mxCell>
        <mxCell id="JgNRl92uMtbdNUEpQfKq-66" style="shape=partialRectangle;html=1;whiteSpace=wrap;connectable=0;strokeColor=inherit;overflow=hidden;fillColor=none;top=0;left=0;bottom=0;right=0;pointerEvents=1;fontSize=16;fontFamily=Patrick Hand;fontSource=https%3A%2F%2Ffonts.googleapis.com%2Fcss%3Ffamily%3DPatrick%2BHand;" vertex="1" parent="JgNRl92uMtbdNUEpQfKq-23">
          <mxGeometry x="100" width="40" height="38" as="geometry">
            <mxRectangle width="40" height="38" as="alternateBounds" />
          </mxGeometry>
        </mxCell>
        <mxCell id="JgNRl92uMtbdNUEpQfKq-26" value="LINESTRING(...)" style="shape=partialRectangle;html=1;whiteSpace=wrap;connectable=0;strokeColor=inherit;overflow=hidden;fillColor=none;top=0;left=0;bottom=0;right=0;pointerEvents=1;fontSize=16;fontFamily=Patrick Hand;fontSource=https%3A%2F%2Ffonts.googleapis.com%2Fcss%3Ffamily%3DPatrick%2BHand;" vertex="1" parent="JgNRl92uMtbdNUEpQfKq-23">
          <mxGeometry x="140" width="110" height="38" as="geometry">
            <mxRectangle width="110" height="38" as="alternateBounds" />
          </mxGeometry>
        </mxCell>
        <mxCell id="JgNRl92uMtbdNUEpQfKq-27" style="shape=tableRow;horizontal=0;startSize=0;swimlaneHead=0;swimlaneBody=0;strokeColor=inherit;top=0;left=0;bottom=0;right=0;collapsible=0;dropTarget=0;fillColor=none;points=[[0,0.5],[1,0.5]];portConstraint=eastwest;fontSize=16;" vertex="1" parent="JgNRl92uMtbdNUEpQfKq-14">
          <mxGeometry y="124" width="250" height="38" as="geometry" />
        </mxCell>
        <mxCell id="JgNRl92uMtbdNUEpQfKq-28" value="2" style="shape=partialRectangle;html=1;whiteSpace=wrap;connectable=0;strokeColor=inherit;overflow=hidden;fillColor=#8500FF;top=0;left=0;bottom=0;right=0;pointerEvents=1;fontSize=16;fontFamily=Patrick Hand;fontSource=https%3A%2F%2Ffonts.googleapis.com%2Fcss%3Ffamily%3DPatrick%2BHand;sketch=1;curveFitting=1;jiggle=2;fillStyle=hachure;fontStyle=1" vertex="1" parent="JgNRl92uMtbdNUEpQfKq-27">
          <mxGeometry width="50" height="38" as="geometry">
            <mxRectangle width="50" height="38" as="alternateBounds" />
          </mxGeometry>
        </mxCell>
        <mxCell id="JgNRl92uMtbdNUEpQfKq-29" value="4" style="shape=partialRectangle;html=1;whiteSpace=wrap;connectable=0;strokeColor=inherit;overflow=hidden;fillColor=#FF50AF;top=0;left=0;bottom=0;right=0;pointerEvents=1;fontSize=16;fontFamily=Patrick Hand;fontSource=https%3A%2F%2Ffonts.googleapis.com%2Fcss%3Ffamily%3DPatrick%2BHand;sketch=1;curveFitting=1;jiggle=2;fillStyle=hachure;fontStyle=1" vertex="1" parent="JgNRl92uMtbdNUEpQfKq-27">
          <mxGeometry x="50" width="50" height="38" as="geometry">
            <mxRectangle width="50" height="38" as="alternateBounds" />
          </mxGeometry>
        </mxCell>
        <mxCell id="JgNRl92uMtbdNUEpQfKq-67" style="shape=partialRectangle;html=1;whiteSpace=wrap;connectable=0;strokeColor=inherit;overflow=hidden;fillColor=none;top=0;left=0;bottom=0;right=0;pointerEvents=1;fontSize=16;fontFamily=Patrick Hand;fontSource=https%3A%2F%2Ffonts.googleapis.com%2Fcss%3Ffamily%3DPatrick%2BHand;" vertex="1" parent="JgNRl92uMtbdNUEpQfKq-27">
          <mxGeometry x="100" width="40" height="38" as="geometry">
            <mxRectangle width="40" height="38" as="alternateBounds" />
          </mxGeometry>
        </mxCell>
        <mxCell id="JgNRl92uMtbdNUEpQfKq-30" value="LINESTRING(...)" style="shape=partialRectangle;html=1;whiteSpace=wrap;connectable=0;strokeColor=inherit;overflow=hidden;fillColor=none;top=0;left=0;bottom=0;right=0;pointerEvents=1;fontSize=16;fontFamily=Patrick Hand;fontSource=https%3A%2F%2Ffonts.googleapis.com%2Fcss%3Ffamily%3DPatrick%2BHand;" vertex="1" parent="JgNRl92uMtbdNUEpQfKq-27">
          <mxGeometry x="140" width="110" height="38" as="geometry">
            <mxRectangle width="110" height="38" as="alternateBounds" />
          </mxGeometry>
        </mxCell>
        <mxCell id="JgNRl92uMtbdNUEpQfKq-51" style="shape=tableRow;horizontal=0;startSize=0;swimlaneHead=0;swimlaneBody=0;strokeColor=inherit;top=0;left=0;bottom=0;right=0;collapsible=0;dropTarget=0;fillColor=none;points=[[0,0.5],[1,0.5]];portConstraint=eastwest;fontSize=16;" vertex="1" parent="JgNRl92uMtbdNUEpQfKq-14">
          <mxGeometry y="162" width="250" height="38" as="geometry" />
        </mxCell>
        <mxCell id="JgNRl92uMtbdNUEpQfKq-52" value="4" style="shape=partialRectangle;html=1;whiteSpace=wrap;connectable=0;strokeColor=inherit;overflow=hidden;fillColor=#FF50AF;top=0;left=0;bottom=0;right=0;pointerEvents=1;fontSize=16;fontFamily=Patrick Hand;fontSource=https%3A%2F%2Ffonts.googleapis.com%2Fcss%3Ffamily%3DPatrick%2BHand;sketch=1;curveFitting=1;jiggle=2;fillStyle=hachure;fontStyle=1" vertex="1" parent="JgNRl92uMtbdNUEpQfKq-51">
          <mxGeometry width="50" height="38" as="geometry">
            <mxRectangle width="50" height="38" as="alternateBounds" />
          </mxGeometry>
        </mxCell>
        <mxCell id="JgNRl92uMtbdNUEpQfKq-53" value="3" style="shape=partialRectangle;html=1;whiteSpace=wrap;connectable=0;strokeColor=inherit;overflow=hidden;fillColor=#66CC00;top=0;left=0;bottom=0;right=0;pointerEvents=1;fontSize=16;fontFamily=Patrick Hand;fontSource=https%3A%2F%2Ffonts.googleapis.com%2Fcss%3Ffamily%3DPatrick%2BHand;sketch=1;curveFitting=1;jiggle=2;fillStyle=hachure;fontStyle=1" vertex="1" parent="JgNRl92uMtbdNUEpQfKq-51">
          <mxGeometry x="50" width="50" height="38" as="geometry">
            <mxRectangle width="50" height="38" as="alternateBounds" />
          </mxGeometry>
        </mxCell>
        <mxCell id="JgNRl92uMtbdNUEpQfKq-68" style="shape=partialRectangle;html=1;whiteSpace=wrap;connectable=0;strokeColor=inherit;overflow=hidden;fillColor=none;top=0;left=0;bottom=0;right=0;pointerEvents=1;fontSize=16;fontFamily=Patrick Hand;fontSource=https%3A%2F%2Ffonts.googleapis.com%2Fcss%3Ffamily%3DPatrick%2BHand;" vertex="1" parent="JgNRl92uMtbdNUEpQfKq-51">
          <mxGeometry x="100" width="40" height="38" as="geometry">
            <mxRectangle width="40" height="38" as="alternateBounds" />
          </mxGeometry>
        </mxCell>
        <mxCell id="JgNRl92uMtbdNUEpQfKq-54" value="&lt;div&gt;&lt;span style=&quot;background-color: initial;&quot;&gt;LINESTRING(...)&lt;/span&gt;&lt;/div&gt;" style="shape=partialRectangle;html=1;whiteSpace=wrap;connectable=0;strokeColor=inherit;overflow=hidden;fillColor=none;top=0;left=0;bottom=0;right=0;pointerEvents=1;fontSize=16;fontFamily=Patrick Hand;fontSource=https%3A%2F%2Ffonts.googleapis.com%2Fcss%3Ffamily%3DPatrick%2BHand;" vertex="1" parent="JgNRl92uMtbdNUEpQfKq-51">
          <mxGeometry x="140" width="110" height="38" as="geometry">
            <mxRectangle width="110" height="38" as="alternateBounds" />
          </mxGeometry>
        </mxCell>
        <mxCell id="JgNRl92uMtbdNUEpQfKq-31" value="" style="shape=table;startSize=0;container=1;collapsible=0;childLayout=tableLayout;fontSize=16;sketch=1;curveFitting=1;jiggle=2;swimlaneLine=1;shadow=0;rounded=0;fontFamily=Patrick Hand;fontSource=https%3A%2F%2Ffonts.googleapis.com%2Fcss%3Ffamily%3DPatrick%2BHand;strokeColor=#333333;fillColor=none;strokeWidth=2;" vertex="1" parent="1">
          <mxGeometry x="267" y="78" width="180" height="200" as="geometry" />
        </mxCell>
        <mxCell id="JgNRl92uMtbdNUEpQfKq-32" value="" style="shape=tableRow;horizontal=0;startSize=0;swimlaneHead=0;swimlaneBody=0;strokeColor=inherit;top=0;left=0;bottom=0;right=0;collapsible=0;dropTarget=0;fillColor=none;points=[[0,0.5],[1,0.5]];portConstraint=eastwest;fontSize=16;" vertex="1" parent="JgNRl92uMtbdNUEpQfKq-31">
          <mxGeometry width="180" height="48" as="geometry" />
        </mxCell>
        <mxCell id="JgNRl92uMtbdNUEpQfKq-34" value="id" style="shape=partialRectangle;html=1;whiteSpace=wrap;connectable=0;strokeColor=inherit;overflow=hidden;fillColor=none;top=0;left=0;bottom=0;right=0;pointerEvents=1;fontSize=18;fontFamily=Patrick Hand;fontSource=https%3A%2F%2Ffonts.googleapis.com%2Fcss%3Ffamily%3DPatrick%2BHand;fontStyle=1" vertex="1" parent="JgNRl92uMtbdNUEpQfKq-32">
          <mxGeometry width="50" height="48" as="geometry">
            <mxRectangle width="50" height="48" as="alternateBounds" />
          </mxGeometry>
        </mxCell>
        <mxCell id="JgNRl92uMtbdNUEpQfKq-69" value="..." style="shape=partialRectangle;html=1;whiteSpace=wrap;connectable=0;strokeColor=inherit;overflow=hidden;fillColor=none;top=0;left=0;bottom=0;right=0;pointerEvents=1;fontSize=18;fontFamily=Patrick Hand;fontSource=https%3A%2F%2Ffonts.googleapis.com%2Fcss%3Ffamily%3DPatrick%2BHand;fontStyle=1" vertex="1" parent="JgNRl92uMtbdNUEpQfKq-32">
          <mxGeometry x="50" width="40" height="48" as="geometry">
            <mxRectangle width="40" height="48" as="alternateBounds" />
          </mxGeometry>
        </mxCell>
        <mxCell id="JgNRl92uMtbdNUEpQfKq-35" value="geometry" style="shape=partialRectangle;html=1;whiteSpace=wrap;connectable=0;strokeColor=inherit;overflow=hidden;fillColor=none;top=0;left=0;bottom=0;right=0;pointerEvents=1;fontSize=18;fontFamily=Patrick Hand;fontSource=https%3A%2F%2Ffonts.googleapis.com%2Fcss%3Ffamily%3DPatrick%2BHand;fontStyle=1" vertex="1" parent="JgNRl92uMtbdNUEpQfKq-32">
          <mxGeometry x="90" width="90" height="48" as="geometry">
            <mxRectangle width="90" height="48" as="alternateBounds" />
          </mxGeometry>
        </mxCell>
        <mxCell id="JgNRl92uMtbdNUEpQfKq-36" value="" style="shape=tableRow;horizontal=0;startSize=0;swimlaneHead=0;swimlaneBody=0;strokeColor=inherit;top=0;left=0;bottom=0;right=0;collapsible=0;dropTarget=0;fillColor=none;points=[[0,0.5],[1,0.5]];portConstraint=eastwest;fontSize=16;" vertex="1" parent="JgNRl92uMtbdNUEpQfKq-31">
          <mxGeometry y="48" width="180" height="38" as="geometry" />
        </mxCell>
        <mxCell id="JgNRl92uMtbdNUEpQfKq-38" value="1" style="shape=partialRectangle;html=1;whiteSpace=wrap;connectable=0;strokeColor=inherit;overflow=hidden;fillColor=#FFA35C;top=0;left=0;bottom=0;right=0;pointerEvents=1;fontSize=16;fontFamily=Patrick Hand;fontSource=https%3A%2F%2Ffonts.googleapis.com%2Fcss%3Ffamily%3DPatrick%2BHand;fillStyle=hachure;sketch=1;curveFitting=1;jiggle=2;fontStyle=1" vertex="1" parent="JgNRl92uMtbdNUEpQfKq-36">
          <mxGeometry width="50" height="38" as="geometry">
            <mxRectangle width="50" height="38" as="alternateBounds" />
          </mxGeometry>
        </mxCell>
        <mxCell id="JgNRl92uMtbdNUEpQfKq-70" style="shape=partialRectangle;html=1;whiteSpace=wrap;connectable=0;strokeColor=inherit;overflow=hidden;fillColor=none;top=0;left=0;bottom=0;right=0;pointerEvents=1;fontSize=16;fontFamily=Patrick Hand;fontSource=https%3A%2F%2Ffonts.googleapis.com%2Fcss%3Ffamily%3DPatrick%2BHand;" vertex="1" parent="JgNRl92uMtbdNUEpQfKq-36">
          <mxGeometry x="50" width="40" height="38" as="geometry">
            <mxRectangle width="40" height="38" as="alternateBounds" />
          </mxGeometry>
        </mxCell>
        <mxCell id="JgNRl92uMtbdNUEpQfKq-39" value="POINT(...)" style="shape=partialRectangle;html=1;whiteSpace=wrap;connectable=0;strokeColor=inherit;overflow=hidden;fillColor=none;top=0;left=0;bottom=0;right=0;pointerEvents=1;fontSize=16;fontFamily=Patrick Hand;fontSource=https%3A%2F%2Ffonts.googleapis.com%2Fcss%3Ffamily%3DPatrick%2BHand;" vertex="1" parent="JgNRl92uMtbdNUEpQfKq-36">
          <mxGeometry x="90" width="90" height="38" as="geometry">
            <mxRectangle width="90" height="38" as="alternateBounds" />
          </mxGeometry>
        </mxCell>
        <mxCell id="JgNRl92uMtbdNUEpQfKq-40" value="" style="shape=tableRow;horizontal=0;startSize=0;swimlaneHead=0;swimlaneBody=0;strokeColor=inherit;top=0;left=0;bottom=0;right=0;collapsible=0;dropTarget=0;fillColor=none;points=[[0,0.5],[1,0.5]];portConstraint=eastwest;fontSize=16;" vertex="1" parent="JgNRl92uMtbdNUEpQfKq-31">
          <mxGeometry y="86" width="180" height="38" as="geometry" />
        </mxCell>
        <mxCell id="JgNRl92uMtbdNUEpQfKq-42" value="2" style="shape=partialRectangle;html=1;whiteSpace=wrap;connectable=0;strokeColor=inherit;overflow=hidden;fillColor=#8500FF;top=0;left=0;bottom=0;right=0;pointerEvents=1;fontSize=16;fontFamily=Patrick Hand;fontSource=https%3A%2F%2Ffonts.googleapis.com%2Fcss%3Ffamily%3DPatrick%2BHand;sketch=1;curveFitting=1;jiggle=2;fillStyle=hachure;fontStyle=1" vertex="1" parent="JgNRl92uMtbdNUEpQfKq-40">
          <mxGeometry width="50" height="38" as="geometry">
            <mxRectangle width="50" height="38" as="alternateBounds" />
          </mxGeometry>
        </mxCell>
        <mxCell id="JgNRl92uMtbdNUEpQfKq-71" style="shape=partialRectangle;html=1;whiteSpace=wrap;connectable=0;strokeColor=inherit;overflow=hidden;fillColor=none;top=0;left=0;bottom=0;right=0;pointerEvents=1;fontSize=16;fontFamily=Patrick Hand;fontSource=https%3A%2F%2Ffonts.googleapis.com%2Fcss%3Ffamily%3DPatrick%2BHand;" vertex="1" parent="JgNRl92uMtbdNUEpQfKq-40">
          <mxGeometry x="50" width="40" height="38" as="geometry">
            <mxRectangle width="40" height="38" as="alternateBounds" />
          </mxGeometry>
        </mxCell>
        <mxCell id="JgNRl92uMtbdNUEpQfKq-43" value="POINT(...)" style="shape=partialRectangle;html=1;whiteSpace=wrap;connectable=0;strokeColor=inherit;overflow=hidden;fillColor=none;top=0;left=0;bottom=0;right=0;pointerEvents=1;fontSize=16;fontFamily=Patrick Hand;fontSource=https%3A%2F%2Ffonts.googleapis.com%2Fcss%3Ffamily%3DPatrick%2BHand;" vertex="1" parent="JgNRl92uMtbdNUEpQfKq-40">
          <mxGeometry x="90" width="90" height="38" as="geometry">
            <mxRectangle width="90" height="38" as="alternateBounds" />
          </mxGeometry>
        </mxCell>
        <mxCell id="JgNRl92uMtbdNUEpQfKq-44" style="shape=tableRow;horizontal=0;startSize=0;swimlaneHead=0;swimlaneBody=0;strokeColor=inherit;top=0;left=0;bottom=0;right=0;collapsible=0;dropTarget=0;fillColor=none;points=[[0,0.5],[1,0.5]];portConstraint=eastwest;fontSize=16;" vertex="1" parent="JgNRl92uMtbdNUEpQfKq-31">
          <mxGeometry y="124" width="180" height="38" as="geometry" />
        </mxCell>
        <mxCell id="JgNRl92uMtbdNUEpQfKq-46" value="3" style="shape=partialRectangle;html=1;whiteSpace=wrap;connectable=0;strokeColor=inherit;overflow=hidden;fillColor=#66CC00;top=0;left=0;bottom=0;right=0;pointerEvents=1;fontSize=16;fontFamily=Patrick Hand;fontSource=https%3A%2F%2Ffonts.googleapis.com%2Fcss%3Ffamily%3DPatrick%2BHand;sketch=1;curveFitting=1;jiggle=2;fillStyle=hachure;fontStyle=1" vertex="1" parent="JgNRl92uMtbdNUEpQfKq-44">
          <mxGeometry width="50" height="38" as="geometry">
            <mxRectangle width="50" height="38" as="alternateBounds" />
          </mxGeometry>
        </mxCell>
        <mxCell id="JgNRl92uMtbdNUEpQfKq-72" style="shape=partialRectangle;html=1;whiteSpace=wrap;connectable=0;strokeColor=inherit;overflow=hidden;fillColor=none;top=0;left=0;bottom=0;right=0;pointerEvents=1;fontSize=16;fontFamily=Patrick Hand;fontSource=https%3A%2F%2Ffonts.googleapis.com%2Fcss%3Ffamily%3DPatrick%2BHand;" vertex="1" parent="JgNRl92uMtbdNUEpQfKq-44">
          <mxGeometry x="50" width="40" height="38" as="geometry">
            <mxRectangle width="40" height="38" as="alternateBounds" />
          </mxGeometry>
        </mxCell>
        <mxCell id="JgNRl92uMtbdNUEpQfKq-47" value="POINT&lt;span style=&quot;background-color: initial;&quot;&gt;(...)&lt;/span&gt;" style="shape=partialRectangle;html=1;whiteSpace=wrap;connectable=0;strokeColor=inherit;overflow=hidden;fillColor=none;top=0;left=0;bottom=0;right=0;pointerEvents=1;fontSize=16;fontFamily=Patrick Hand;fontSource=https%3A%2F%2Ffonts.googleapis.com%2Fcss%3Ffamily%3DPatrick%2BHand;" vertex="1" parent="JgNRl92uMtbdNUEpQfKq-44">
          <mxGeometry x="90" width="90" height="38" as="geometry">
            <mxRectangle width="90" height="38" as="alternateBounds" />
          </mxGeometry>
        </mxCell>
        <mxCell id="JgNRl92uMtbdNUEpQfKq-48" style="shape=tableRow;horizontal=0;startSize=0;swimlaneHead=0;swimlaneBody=0;strokeColor=inherit;top=0;left=0;bottom=0;right=0;collapsible=0;dropTarget=0;fillColor=none;points=[[0,0.5],[1,0.5]];portConstraint=eastwest;fontSize=16;" vertex="1" parent="JgNRl92uMtbdNUEpQfKq-31">
          <mxGeometry y="162" width="180" height="38" as="geometry" />
        </mxCell>
        <mxCell id="JgNRl92uMtbdNUEpQfKq-49" value="4" style="shape=partialRectangle;html=1;whiteSpace=wrap;connectable=0;strokeColor=inherit;overflow=hidden;fillColor=#FF50AF;top=0;left=0;bottom=0;right=0;pointerEvents=1;fontSize=16;fontFamily=Patrick Hand;fontSource=https%3A%2F%2Ffonts.googleapis.com%2Fcss%3Ffamily%3DPatrick%2BHand;sketch=1;curveFitting=1;jiggle=2;fillStyle=hachure;fontStyle=1" vertex="1" parent="JgNRl92uMtbdNUEpQfKq-48">
          <mxGeometry width="50" height="38" as="geometry">
            <mxRectangle width="50" height="38" as="alternateBounds" />
          </mxGeometry>
        </mxCell>
        <mxCell id="JgNRl92uMtbdNUEpQfKq-73" style="shape=partialRectangle;html=1;whiteSpace=wrap;connectable=0;strokeColor=inherit;overflow=hidden;fillColor=none;top=0;left=0;bottom=0;right=0;pointerEvents=1;fontSize=16;fontFamily=Patrick Hand;fontSource=https%3A%2F%2Ffonts.googleapis.com%2Fcss%3Ffamily%3DPatrick%2BHand;" vertex="1" parent="JgNRl92uMtbdNUEpQfKq-48">
          <mxGeometry x="50" width="40" height="38" as="geometry">
            <mxRectangle width="40" height="38" as="alternateBounds" />
          </mxGeometry>
        </mxCell>
        <mxCell id="JgNRl92uMtbdNUEpQfKq-50" value="POINT(...)" style="shape=partialRectangle;html=1;whiteSpace=wrap;connectable=0;strokeColor=inherit;overflow=hidden;fillColor=none;top=0;left=0;bottom=0;right=0;pointerEvents=1;fontSize=16;fontFamily=Patrick Hand;fontSource=https%3A%2F%2Ffonts.googleapis.com%2Fcss%3Ffamily%3DPatrick%2BHand;" vertex="1" parent="JgNRl92uMtbdNUEpQfKq-48">
          <mxGeometry x="90" width="90" height="38" as="geometry">
            <mxRectangle width="90" height="38" as="alternateBounds" />
          </mxGeometry>
        </mxCell>
        <mxCell id="JgNRl92uMtbdNUEpQfKq-55" value="1" style="strokeWidth=2;html=1;shape=mxgraph.flowchart.start_2;whiteSpace=wrap;perimeterSpacing=0;fontFamily=Patrick Hand;fontSource=https%3A%2F%2Ffonts.googleapis.com%2Fcss%3Ffamily%3DPatrick%2BHand;fontSize=20;fillColor=#FFA35C;" vertex="1" parent="1">
          <mxGeometry x="10" y="183" width="30" height="30" as="geometry" />
        </mxCell>
        <mxCell id="JgNRl92uMtbdNUEpQfKq-56" value="2" style="strokeWidth=2;html=1;shape=mxgraph.flowchart.start_2;whiteSpace=wrap;perimeterSpacing=0;fontFamily=Patrick Hand;fontSource=https%3A%2F%2Ffonts.googleapis.com%2Fcss%3Ffamily%3DPatrick%2BHand;fontSize=20;fillColor=#8500ff;" vertex="1" parent="1">
          <mxGeometry x="150" y="243" width="30" height="30" as="geometry" />
        </mxCell>
        <mxCell id="JgNRl92uMtbdNUEpQfKq-57" value="4" style="strokeWidth=2;html=1;shape=mxgraph.flowchart.start_2;whiteSpace=wrap;perimeterSpacing=0;fontFamily=Patrick Hand;fontSource=https%3A%2F%2Ffonts.googleapis.com%2Fcss%3Ffamily%3DPatrick%2BHand;fontSize=20;fillColor=#FF50AF;fillStyle=auto;" vertex="1" parent="1">
          <mxGeometry x="90" y="43" width="30" height="30" as="geometry" />
        </mxCell>
        <mxCell id="JgNRl92uMtbdNUEpQfKq-58" value="3" style="strokeWidth=2;html=1;shape=mxgraph.flowchart.start_2;whiteSpace=wrap;perimeterSpacing=0;fontFamily=Patrick Hand;fontSource=https%3A%2F%2Ffonts.googleapis.com%2Fcss%3Ffamily%3DPatrick%2BHand;fontSize=20;fillColor=#66CC00;" vertex="1" parent="1">
          <mxGeometry x="90" y="183" width="30" height="30" as="geometry" />
        </mxCell>
        <mxCell id="JgNRl92uMtbdNUEpQfKq-59" style="rounded=0;orthogonalLoop=1;jettySize=auto;html=1;exitX=0.855;exitY=0.855;exitDx=0;exitDy=0;exitPerimeter=0;entryX=0.145;entryY=0.145;entryDx=0;entryDy=0;entryPerimeter=0;endArrow=classic;endFill=1;sketch=1;curveFitting=1;jiggle=2;jumpStyle=none;curved=1;endSize=10;targetPerimeterSpacing=0;" edge="1" parent="1" source="JgNRl92uMtbdNUEpQfKq-55" target="JgNRl92uMtbdNUEpQfKq-56">
          <mxGeometry relative="1" as="geometry" />
        </mxCell>
        <mxCell id="JgNRl92uMtbdNUEpQfKq-60" style="rounded=0;orthogonalLoop=1;jettySize=auto;html=1;exitX=1;exitY=0.5;exitDx=0;exitDy=0;exitPerimeter=0;entryX=0;entryY=0.5;entryDx=0;entryDy=0;entryPerimeter=0;endArrow=classic;endFill=1;sketch=1;curveFitting=1;jiggle=2;curved=0;endSize=10;" edge="1" parent="1" source="JgNRl92uMtbdNUEpQfKq-55" target="JgNRl92uMtbdNUEpQfKq-58">
          <mxGeometry relative="1" as="geometry" />
        </mxCell>
        <mxCell id="JgNRl92uMtbdNUEpQfKq-61" style="rounded=0;orthogonalLoop=1;jettySize=auto;html=1;entryX=0.855;entryY=0.855;entryDx=0;entryDy=0;entryPerimeter=0;endArrow=classic;endFill=1;sketch=1;curveFitting=1;jiggle=2;endSize=10;exitX=0.5;exitY=0;exitDx=0;exitDy=0;exitPerimeter=0;" edge="1" parent="1" source="JgNRl92uMtbdNUEpQfKq-56" target="JgNRl92uMtbdNUEpQfKq-57">
          <mxGeometry relative="1" as="geometry">
            <mxPoint x="170" y="230" as="sourcePoint" />
          </mxGeometry>
        </mxCell>
        <mxCell id="JgNRl92uMtbdNUEpQfKq-62" style="rounded=0;orthogonalLoop=1;jettySize=auto;html=1;exitX=0.5;exitY=0;exitDx=0;exitDy=0;exitPerimeter=0;entryX=0.5;entryY=1;entryDx=0;entryDy=0;entryPerimeter=0;endArrow=none;endFill=0;sketch=1;curveFitting=1;jiggle=2;startArrow=classic;startFill=1;startSize=10;" edge="1" parent="1" source="JgNRl92uMtbdNUEpQfKq-58" target="JgNRl92uMtbdNUEpQfKq-57">
          <mxGeometry relative="1" as="geometry" />
        </mxCell>
        <mxCell id="JgNRl92uMtbdNUEpQfKq-74" value="optional" style="text;html=1;align=center;verticalAlign=middle;whiteSpace=wrap;rounded=0;fontFamily=Patrick Hand;fontSource=https%3A%2F%2Ffonts.googleapis.com%2Fcss%3Ffamily%3DPatrick%2BHand;fontStyle=2;fontColor=#4500FF;strokeColor=none;fontSize=17;" vertex="1" parent="1">
          <mxGeometry x="767" y="77" width="60" height="30" as="geometry" />
        </mxCell>
        <mxCell id="JgNRl92uMtbdNUEpQfKq-75" value="row numbers" style="text;html=1;align=center;verticalAlign=middle;whiteSpace=wrap;rounded=0;fontFamily=Patrick Hand;fontSource=https%3A%2F%2Ffonts.googleapis.com%2Fcss%3Ffamily%3DPatrick%2BHand;fontStyle=2;fontColor=#4500FF;strokeColor=none;fontSize=17;" vertex="1" parent="1">
          <mxGeometry x="170" y="136" width="70" height="44" as="geometry" />
        </mxCell>
        <mxCell id="JgNRl92uMtbdNUEpQfKq-76" value="attributes" style="text;html=1;align=center;verticalAlign=middle;whiteSpace=wrap;rounded=0;fontFamily=Patrick Hand;fontSource=https%3A%2F%2Ffonts.googleapis.com%2Fcss%3Ffamily%3DPatrick%2BHand;fontStyle=2;fontColor=#4500FF;strokeColor=none;fontSize=17;" vertex="1" parent="1">
          <mxGeometry x="197" y="27" width="70" height="30" as="geometry" />
        </mxCell>
        <mxCell id="JgNRl92uMtbdNUEpQfKq-77" value="attributes" style="text;html=1;align=center;verticalAlign=middle;whiteSpace=wrap;rounded=0;fontFamily=Patrick Hand;fontSource=https%3A%2F%2Ffonts.googleapis.com%2Fcss%3Ffamily%3DPatrick%2BHand;fontStyle=2;fontColor=#4500FF;strokeColor=none;fontSize=17;" vertex="1" parent="1">
          <mxGeometry x="697" y="27" width="70" height="30" as="geometry" />
        </mxCell>
        <mxCell id="JgNRl92uMtbdNUEpQfKq-78" value="Node table" style="text;html=1;align=center;verticalAlign=middle;whiteSpace=wrap;rounded=0;fontSize=22;fontStyle=1;fontFamily=Patrick Hand;fontSource=https%3A%2F%2Ffonts.googleapis.com%2Fcss%3Ffamily%3DPatrick%2BHand;" vertex="1" parent="1">
          <mxGeometry x="347" y="48" width="100" height="30" as="geometry" />
        </mxCell>
        <mxCell id="JgNRl92uMtbdNUEpQfKq-79" value="Edge table" style="text;html=1;align=center;verticalAlign=middle;whiteSpace=wrap;rounded=0;fontSize=22;fontStyle=1;fontFamily=Patrick Hand;fontSource=https%3A%2F%2Ffonts.googleapis.com%2Fcss%3Ffamily%3DPatrick%2BHand;" vertex="1" parent="1">
          <mxGeometry x="477" y="48" width="100" height="30" as="geometry" />
        </mxCell>
        <mxCell id="JgNRl92uMtbdNUEpQfKq-80" value="" style="curved=1;endArrow=classic;html=1;rounded=0;entryX=0;entryY=0.5;entryDx=0;entryDy=0;sketch=1;curveFitting=1;jiggle=2;strokeColor=#4500FF;dashed=1;fontColor=#4500FF;" edge="1" parent="1" target="JgNRl92uMtbdNUEpQfKq-77">
          <mxGeometry width="50" height="50" relative="1" as="geometry">
            <mxPoint x="597" y="77" as="sourcePoint" />
            <mxPoint x="657" y="57" as="targetPoint" />
            <Array as="points">
              <mxPoint x="597" y="67" />
              <mxPoint x="617" y="57" />
              <mxPoint x="657" y="67" />
              <mxPoint x="657" y="42" />
            </Array>
          </mxGeometry>
        </mxCell>
        <mxCell id="JgNRl92uMtbdNUEpQfKq-81" value="" style="curved=1;endArrow=classic;html=1;rounded=0;entryX=1;entryY=0.5;entryDx=0;entryDy=0;sketch=1;curveFitting=1;jiggle=2;strokeColor=#4500FF;dashed=1;fontColor=#4500FF;" edge="1" parent="1" target="JgNRl92uMtbdNUEpQfKq-76">
          <mxGeometry width="50" height="50" relative="1" as="geometry">
            <mxPoint x="337" y="77" as="sourcePoint" />
            <mxPoint x="277" y="48" as="targetPoint" />
            <Array as="points">
              <mxPoint x="327" y="57" />
              <mxPoint x="287" y="67" />
              <mxPoint x="297" y="42" />
            </Array>
          </mxGeometry>
        </mxCell>
        <mxCell id="JgNRl92uMtbdNUEpQfKq-82" value="" style="curved=1;endArrow=classic;html=1;rounded=0;sketch=1;curveFitting=1;jiggle=2;strokeColor=#4500FF;dashed=1;exitX=0;exitY=0.5;exitDx=0;exitDy=0;fontColor=#4500FF;entryX=0.5;entryY=0;entryDx=0;entryDy=0;" edge="1" parent="1" source="JgNRl92uMtbdNUEpQfKq-32" target="JgNRl92uMtbdNUEpQfKq-75">
          <mxGeometry width="50" height="50" relative="1" as="geometry">
            <mxPoint x="247" y="182" as="sourcePoint" />
            <mxPoint x="190" y="120" as="targetPoint" />
            <Array as="points">
              <mxPoint x="237" y="162" />
              <mxPoint x="247" y="77" />
              <mxPoint x="217" y="107" />
            </Array>
          </mxGeometry>
        </mxCell>
        <mxCell id="JgNRl92uMtbdNUEpQfKq-83" value="" style="curved=1;endArrow=classic;html=1;rounded=0;sketch=1;curveFitting=1;jiggle=2;strokeColor=#4500FF;dashed=1;entryX=0.25;entryY=1;entryDx=0;entryDy=0;fontColor=#4500FF;" edge="1" parent="1" target="JgNRl92uMtbdNUEpQfKq-74">
          <mxGeometry width="50" height="50" relative="1" as="geometry">
            <mxPoint x="727" y="97" as="sourcePoint" />
            <mxPoint x="757" y="165" as="targetPoint" />
            <Array as="points">
              <mxPoint x="757" y="127" />
              <mxPoint x="807" y="127" />
              <mxPoint x="777" y="157" />
            </Array>
          </mxGeometry>
        </mxCell>
      </root>
    </mxGraphModel>
  </diagram>
  <diagram name="black-bg" id="HGgu3FWoDEMdLxCGjzOU">
    <mxGraphModel dx="794" dy="500" grid="0" gridSize="10" guides="1" tooltips="1" connect="1" arrows="1" fold="1" page="1" pageScale="1" pageWidth="827" pageHeight="336" background="#333333" math="0" shadow="0">
      <root>
        <mxCell id="qylrMCXfZuORD8cwXGqV-0" />
        <mxCell id="qylrMCXfZuORD8cwXGqV-1" parent="qylrMCXfZuORD8cwXGqV-0" />
        <mxCell id="qylrMCXfZuORD8cwXGqV-2" value="" style="shape=table;startSize=0;container=1;collapsible=0;childLayout=tableLayout;fontSize=16;swimlaneLine=1;shadow=0;rounded=0;fontFamily=Patrick Hand;fontSource=https%3A%2F%2Ffonts.googleapis.com%2Fcss%3Ffamily%3DPatrick%2BHand;strokeColor=#E6E6E6;fillColor=none;fontColor=#FFFFFF;sketch=1;curveFitting=1;jiggle=2;strokeWidth=2;" vertex="1" parent="qylrMCXfZuORD8cwXGqV-1">
          <mxGeometry x="477" y="78" width="250" height="199.75003051757812" as="geometry" />
        </mxCell>
        <mxCell id="qylrMCXfZuORD8cwXGqV-3" value="" style="shape=tableRow;horizontal=0;startSize=0;swimlaneHead=0;swimlaneBody=0;strokeColor=inherit;top=0;left=0;bottom=0;right=0;collapsible=0;dropTarget=0;fillColor=none;points=[[0,0.5],[1,0.5]];portConstraint=eastwest;fontSize=16;" vertex="1" parent="qylrMCXfZuORD8cwXGqV-2">
          <mxGeometry width="250" height="48" as="geometry" />
        </mxCell>
        <mxCell id="qylrMCXfZuORD8cwXGqV-4" value="to" style="shape=partialRectangle;html=1;whiteSpace=wrap;connectable=0;strokeColor=inherit;overflow=hidden;fillColor=none;top=0;left=0;bottom=0;right=0;pointerEvents=1;fontSize=18;fontFamily=Patrick Hand;fontSource=https%3A%2F%2Ffonts.googleapis.com%2Fcss%3Ffamily%3DPatrick%2BHand;fontStyle=1;fontColor=#FFFFFF;" vertex="1" parent="qylrMCXfZuORD8cwXGqV-3">
          <mxGeometry width="50" height="48" as="geometry">
            <mxRectangle width="50" height="48" as="alternateBounds" />
          </mxGeometry>
        </mxCell>
        <mxCell id="qylrMCXfZuORD8cwXGqV-5" value="from" style="shape=partialRectangle;html=1;whiteSpace=wrap;connectable=0;strokeColor=inherit;overflow=hidden;fillColor=none;top=0;left=0;bottom=0;right=0;pointerEvents=1;fontSize=18;fontFamily=Patrick Hand;fontSource=https%3A%2F%2Ffonts.googleapis.com%2Fcss%3Ffamily%3DPatrick%2BHand;fontStyle=1;fontColor=#FFFFFF;" vertex="1" parent="qylrMCXfZuORD8cwXGqV-3">
          <mxGeometry x="50" width="50" height="48" as="geometry">
            <mxRectangle width="50" height="48" as="alternateBounds" />
          </mxGeometry>
        </mxCell>
        <mxCell id="qylrMCXfZuORD8cwXGqV-6" value="..." style="shape=partialRectangle;html=1;whiteSpace=wrap;connectable=0;strokeColor=inherit;overflow=hidden;fillColor=none;top=0;left=0;bottom=0;right=0;pointerEvents=1;fontSize=18;fontFamily=Patrick Hand;fontSource=https%3A%2F%2Ffonts.googleapis.com%2Fcss%3Ffamily%3DPatrick%2BHand;fontStyle=1;fontColor=#FFFFFF;" vertex="1" parent="qylrMCXfZuORD8cwXGqV-3">
          <mxGeometry x="100" width="40" height="48" as="geometry">
            <mxRectangle width="40" height="48" as="alternateBounds" />
          </mxGeometry>
        </mxCell>
        <mxCell id="qylrMCXfZuORD8cwXGqV-7" value="geometry" style="shape=partialRectangle;html=1;whiteSpace=wrap;connectable=0;strokeColor=inherit;overflow=hidden;fillColor=none;top=0;left=0;bottom=0;right=0;pointerEvents=1;fontSize=18;fontFamily=Patrick Hand;fontSource=https%3A%2F%2Ffonts.googleapis.com%2Fcss%3Ffamily%3DPatrick%2BHand;fontStyle=1;fontColor=#FFFFFF;" vertex="1" parent="qylrMCXfZuORD8cwXGqV-3">
          <mxGeometry x="140" width="110" height="48" as="geometry">
            <mxRectangle width="110" height="48" as="alternateBounds" />
          </mxGeometry>
        </mxCell>
        <mxCell id="qylrMCXfZuORD8cwXGqV-8" value="" style="shape=tableRow;horizontal=0;startSize=0;swimlaneHead=0;swimlaneBody=0;strokeColor=inherit;top=0;left=0;bottom=0;right=0;collapsible=0;dropTarget=0;fillColor=none;points=[[0,0.5],[1,0.5]];portConstraint=eastwest;fontSize=16;" vertex="1" parent="qylrMCXfZuORD8cwXGqV-2">
          <mxGeometry y="48" width="250" height="38" as="geometry" />
        </mxCell>
        <mxCell id="qylrMCXfZuORD8cwXGqV-9" value="1" style="shape=partialRectangle;html=1;whiteSpace=wrap;connectable=0;strokeColor=inherit;overflow=hidden;fillColor=#FFA35C;top=0;left=0;bottom=0;right=0;pointerEvents=1;fontSize=16;fontFamily=Patrick Hand;fontSource=https%3A%2F%2Ffonts.googleapis.com%2Fcss%3Ffamily%3DPatrick%2BHand;sketch=1;curveFitting=1;jiggle=2;fontStyle=1;fontColor=#FFFFFF;" vertex="1" parent="qylrMCXfZuORD8cwXGqV-8">
          <mxGeometry width="50" height="38" as="geometry">
            <mxRectangle width="50" height="38" as="alternateBounds" />
          </mxGeometry>
        </mxCell>
        <mxCell id="qylrMCXfZuORD8cwXGqV-10" value="2" style="shape=partialRectangle;html=1;whiteSpace=wrap;connectable=0;strokeColor=inherit;overflow=hidden;fillColor=#8500FF;top=0;left=0;bottom=0;right=0;pointerEvents=1;fontSize=16;fontFamily=Patrick Hand;fontSource=https%3A%2F%2Ffonts.googleapis.com%2Fcss%3Ffamily%3DPatrick%2BHand;sketch=1;curveFitting=1;jiggle=2;fillStyle=hachure;fontStyle=1;fontColor=#FFFFFF;" vertex="1" parent="qylrMCXfZuORD8cwXGqV-8">
          <mxGeometry x="50" width="50" height="38" as="geometry">
            <mxRectangle width="50" height="38" as="alternateBounds" />
          </mxGeometry>
        </mxCell>
        <mxCell id="qylrMCXfZuORD8cwXGqV-11" style="shape=partialRectangle;html=1;whiteSpace=wrap;connectable=0;strokeColor=inherit;overflow=hidden;fillColor=none;top=0;left=0;bottom=0;right=0;pointerEvents=1;fontSize=16;fontFamily=Patrick Hand;fontSource=https%3A%2F%2Ffonts.googleapis.com%2Fcss%3Ffamily%3DPatrick%2BHand;fontColor=#FFFFFF;" vertex="1" parent="qylrMCXfZuORD8cwXGqV-8">
          <mxGeometry x="100" width="40" height="38" as="geometry">
            <mxRectangle width="40" height="38" as="alternateBounds" />
          </mxGeometry>
        </mxCell>
        <mxCell id="qylrMCXfZuORD8cwXGqV-12" value="LINESTRING(...)" style="shape=partialRectangle;html=1;whiteSpace=wrap;connectable=0;strokeColor=inherit;overflow=hidden;fillColor=none;top=0;left=0;bottom=0;right=0;pointerEvents=1;fontSize=16;fontFamily=Patrick Hand;fontSource=https%3A%2F%2Ffonts.googleapis.com%2Fcss%3Ffamily%3DPatrick%2BHand;fontColor=#FFFFFF;" vertex="1" parent="qylrMCXfZuORD8cwXGqV-8">
          <mxGeometry x="140" width="110" height="38" as="geometry">
            <mxRectangle width="110" height="38" as="alternateBounds" />
          </mxGeometry>
        </mxCell>
        <mxCell id="qylrMCXfZuORD8cwXGqV-13" value="" style="shape=tableRow;horizontal=0;startSize=0;swimlaneHead=0;swimlaneBody=0;strokeColor=inherit;top=0;left=0;bottom=0;right=0;collapsible=0;dropTarget=0;fillColor=none;points=[[0,0.5],[1,0.5]];portConstraint=eastwest;fontSize=16;" vertex="1" parent="qylrMCXfZuORD8cwXGqV-2">
          <mxGeometry y="86" width="250" height="38" as="geometry" />
        </mxCell>
        <mxCell id="qylrMCXfZuORD8cwXGqV-14" value="1" style="shape=partialRectangle;html=1;whiteSpace=wrap;connectable=0;strokeColor=inherit;overflow=hidden;fillColor=#FFA35C;top=0;left=0;bottom=0;right=0;pointerEvents=1;fontSize=16;fontFamily=Patrick Hand;fontSource=https%3A%2F%2Ffonts.googleapis.com%2Fcss%3Ffamily%3DPatrick%2BHand;sketch=1;curveFitting=1;jiggle=2;fontStyle=1;fontColor=#FFFFFF;" vertex="1" parent="qylrMCXfZuORD8cwXGqV-13">
          <mxGeometry width="50" height="38" as="geometry">
            <mxRectangle width="50" height="38" as="alternateBounds" />
          </mxGeometry>
        </mxCell>
        <mxCell id="qylrMCXfZuORD8cwXGqV-15" value="3" style="shape=partialRectangle;html=1;whiteSpace=wrap;connectable=0;strokeColor=inherit;overflow=hidden;fillColor=#66CC00;top=0;left=0;bottom=0;right=0;pointerEvents=1;fontSize=16;fontFamily=Patrick Hand;fontSource=https%3A%2F%2Ffonts.googleapis.com%2Fcss%3Ffamily%3DPatrick%2BHand;sketch=1;curveFitting=1;jiggle=2;fillStyle=hachure;fontStyle=1;fontColor=#FFFFFF;" vertex="1" parent="qylrMCXfZuORD8cwXGqV-13">
          <mxGeometry x="50" width="50" height="38" as="geometry">
            <mxRectangle width="50" height="38" as="alternateBounds" />
          </mxGeometry>
        </mxCell>
        <mxCell id="qylrMCXfZuORD8cwXGqV-16" style="shape=partialRectangle;html=1;whiteSpace=wrap;connectable=0;strokeColor=inherit;overflow=hidden;fillColor=none;top=0;left=0;bottom=0;right=0;pointerEvents=1;fontSize=16;fontFamily=Patrick Hand;fontSource=https%3A%2F%2Ffonts.googleapis.com%2Fcss%3Ffamily%3DPatrick%2BHand;fontColor=#FFFFFF;" vertex="1" parent="qylrMCXfZuORD8cwXGqV-13">
          <mxGeometry x="100" width="40" height="38" as="geometry">
            <mxRectangle width="40" height="38" as="alternateBounds" />
          </mxGeometry>
        </mxCell>
        <mxCell id="qylrMCXfZuORD8cwXGqV-17" value="LINESTRING(...)" style="shape=partialRectangle;html=1;whiteSpace=wrap;connectable=0;strokeColor=inherit;overflow=hidden;fillColor=none;top=0;left=0;bottom=0;right=0;pointerEvents=1;fontSize=16;fontFamily=Patrick Hand;fontSource=https%3A%2F%2Ffonts.googleapis.com%2Fcss%3Ffamily%3DPatrick%2BHand;fontColor=#FFFFFF;" vertex="1" parent="qylrMCXfZuORD8cwXGqV-13">
          <mxGeometry x="140" width="110" height="38" as="geometry">
            <mxRectangle width="110" height="38" as="alternateBounds" />
          </mxGeometry>
        </mxCell>
        <mxCell id="qylrMCXfZuORD8cwXGqV-18" style="shape=tableRow;horizontal=0;startSize=0;swimlaneHead=0;swimlaneBody=0;strokeColor=inherit;top=0;left=0;bottom=0;right=0;collapsible=0;dropTarget=0;fillColor=none;points=[[0,0.5],[1,0.5]];portConstraint=eastwest;fontSize=16;" vertex="1" parent="qylrMCXfZuORD8cwXGqV-2">
          <mxGeometry y="124" width="250" height="38" as="geometry" />
        </mxCell>
        <mxCell id="qylrMCXfZuORD8cwXGqV-19" value="2" style="shape=partialRectangle;html=1;whiteSpace=wrap;connectable=0;strokeColor=inherit;overflow=hidden;fillColor=#8500FF;top=0;left=0;bottom=0;right=0;pointerEvents=1;fontSize=16;fontFamily=Patrick Hand;fontSource=https%3A%2F%2Ffonts.googleapis.com%2Fcss%3Ffamily%3DPatrick%2BHand;sketch=1;curveFitting=1;jiggle=2;fillStyle=hachure;fontStyle=1;fontColor=#FFFFFF;" vertex="1" parent="qylrMCXfZuORD8cwXGqV-18">
          <mxGeometry width="50" height="38" as="geometry">
            <mxRectangle width="50" height="38" as="alternateBounds" />
          </mxGeometry>
        </mxCell>
        <mxCell id="qylrMCXfZuORD8cwXGqV-20" value="4" style="shape=partialRectangle;html=1;whiteSpace=wrap;connectable=0;strokeColor=inherit;overflow=hidden;fillColor=#FF50AF;top=0;left=0;bottom=0;right=0;pointerEvents=1;fontSize=16;fontFamily=Patrick Hand;fontSource=https%3A%2F%2Ffonts.googleapis.com%2Fcss%3Ffamily%3DPatrick%2BHand;sketch=1;curveFitting=1;jiggle=2;fillStyle=hachure;fontStyle=1;fontColor=#FFFFFF;" vertex="1" parent="qylrMCXfZuORD8cwXGqV-18">
          <mxGeometry x="50" width="50" height="38" as="geometry">
            <mxRectangle width="50" height="38" as="alternateBounds" />
          </mxGeometry>
        </mxCell>
        <mxCell id="qylrMCXfZuORD8cwXGqV-21" style="shape=partialRectangle;html=1;whiteSpace=wrap;connectable=0;strokeColor=inherit;overflow=hidden;fillColor=none;top=0;left=0;bottom=0;right=0;pointerEvents=1;fontSize=16;fontFamily=Patrick Hand;fontSource=https%3A%2F%2Ffonts.googleapis.com%2Fcss%3Ffamily%3DPatrick%2BHand;fontColor=#FFFFFF;" vertex="1" parent="qylrMCXfZuORD8cwXGqV-18">
          <mxGeometry x="100" width="40" height="38" as="geometry">
            <mxRectangle width="40" height="38" as="alternateBounds" />
          </mxGeometry>
        </mxCell>
        <mxCell id="qylrMCXfZuORD8cwXGqV-22" value="LINESTRING(...)" style="shape=partialRectangle;html=1;whiteSpace=wrap;connectable=0;strokeColor=inherit;overflow=hidden;fillColor=none;top=0;left=0;bottom=0;right=0;pointerEvents=1;fontSize=16;fontFamily=Patrick Hand;fontSource=https%3A%2F%2Ffonts.googleapis.com%2Fcss%3Ffamily%3DPatrick%2BHand;fontColor=#FFFFFF;" vertex="1" parent="qylrMCXfZuORD8cwXGqV-18">
          <mxGeometry x="140" width="110" height="38" as="geometry">
            <mxRectangle width="110" height="38" as="alternateBounds" />
          </mxGeometry>
        </mxCell>
        <mxCell id="qylrMCXfZuORD8cwXGqV-23" style="shape=tableRow;horizontal=0;startSize=0;swimlaneHead=0;swimlaneBody=0;strokeColor=inherit;top=0;left=0;bottom=0;right=0;collapsible=0;dropTarget=0;fillColor=none;points=[[0,0.5],[1,0.5]];portConstraint=eastwest;fontSize=16;" vertex="1" parent="qylrMCXfZuORD8cwXGqV-2">
          <mxGeometry y="162" width="250" height="38" as="geometry" />
        </mxCell>
        <mxCell id="qylrMCXfZuORD8cwXGqV-24" value="4" style="shape=partialRectangle;html=1;whiteSpace=wrap;connectable=0;strokeColor=inherit;overflow=hidden;fillColor=#FF50AF;top=0;left=0;bottom=0;right=0;pointerEvents=1;fontSize=16;fontFamily=Patrick Hand;fontSource=https%3A%2F%2Ffonts.googleapis.com%2Fcss%3Ffamily%3DPatrick%2BHand;sketch=1;curveFitting=1;jiggle=2;fillStyle=hachure;fontStyle=1;fontColor=#FFFFFF;" vertex="1" parent="qylrMCXfZuORD8cwXGqV-23">
          <mxGeometry width="50" height="38" as="geometry">
            <mxRectangle width="50" height="38" as="alternateBounds" />
          </mxGeometry>
        </mxCell>
        <mxCell id="qylrMCXfZuORD8cwXGqV-25" value="3" style="shape=partialRectangle;html=1;whiteSpace=wrap;connectable=0;strokeColor=inherit;overflow=hidden;fillColor=#66CC00;top=0;left=0;bottom=0;right=0;pointerEvents=1;fontSize=16;fontFamily=Patrick Hand;fontSource=https%3A%2F%2Ffonts.googleapis.com%2Fcss%3Ffamily%3DPatrick%2BHand;sketch=1;curveFitting=1;jiggle=2;fillStyle=hachure;fontStyle=1;fontColor=#FFFFFF;" vertex="1" parent="qylrMCXfZuORD8cwXGqV-23">
          <mxGeometry x="50" width="50" height="38" as="geometry">
            <mxRectangle width="50" height="38" as="alternateBounds" />
          </mxGeometry>
        </mxCell>
        <mxCell id="qylrMCXfZuORD8cwXGqV-26" style="shape=partialRectangle;html=1;whiteSpace=wrap;connectable=0;strokeColor=inherit;overflow=hidden;fillColor=none;top=0;left=0;bottom=0;right=0;pointerEvents=1;fontSize=16;fontFamily=Patrick Hand;fontSource=https%3A%2F%2Ffonts.googleapis.com%2Fcss%3Ffamily%3DPatrick%2BHand;fontColor=#FFFFFF;" vertex="1" parent="qylrMCXfZuORD8cwXGqV-23">
          <mxGeometry x="100" width="40" height="38" as="geometry">
            <mxRectangle width="40" height="38" as="alternateBounds" />
          </mxGeometry>
        </mxCell>
        <mxCell id="qylrMCXfZuORD8cwXGqV-27" value="&lt;div&gt;&lt;span style=&quot;background-color: initial;&quot;&gt;LINESTRING(...)&lt;/span&gt;&lt;/div&gt;" style="shape=partialRectangle;html=1;whiteSpace=wrap;connectable=0;strokeColor=inherit;overflow=hidden;fillColor=none;top=0;left=0;bottom=0;right=0;pointerEvents=1;fontSize=16;fontFamily=Patrick Hand;fontSource=https%3A%2F%2Ffonts.googleapis.com%2Fcss%3Ffamily%3DPatrick%2BHand;fontColor=#FFFFFF;" vertex="1" parent="qylrMCXfZuORD8cwXGqV-23">
          <mxGeometry x="140" width="110" height="38" as="geometry">
            <mxRectangle width="110" height="38" as="alternateBounds" />
          </mxGeometry>
        </mxCell>
        <mxCell id="qylrMCXfZuORD8cwXGqV-28" value="" style="shape=table;startSize=0;container=1;collapsible=0;childLayout=tableLayout;fontSize=16;sketch=1;curveFitting=1;jiggle=2;swimlaneLine=1;shadow=0;rounded=0;fontFamily=Patrick Hand;fontSource=https%3A%2F%2Ffonts.googleapis.com%2Fcss%3Ffamily%3DPatrick%2BHand;strokeColor=#E6E6E6;fillColor=none;fontColor=#FFFFFF;strokeWidth=2;" vertex="1" parent="qylrMCXfZuORD8cwXGqV-1">
          <mxGeometry x="267" y="78" width="180" height="200" as="geometry" />
        </mxCell>
        <mxCell id="qylrMCXfZuORD8cwXGqV-29" value="" style="shape=tableRow;horizontal=0;startSize=0;swimlaneHead=0;swimlaneBody=0;strokeColor=inherit;top=0;left=0;bottom=0;right=0;collapsible=0;dropTarget=0;fillColor=none;points=[[0,0.5],[1,0.5]];portConstraint=eastwest;fontSize=16;" vertex="1" parent="qylrMCXfZuORD8cwXGqV-28">
          <mxGeometry width="180" height="48" as="geometry" />
        </mxCell>
        <mxCell id="qylrMCXfZuORD8cwXGqV-30" value="id" style="shape=partialRectangle;html=1;whiteSpace=wrap;connectable=0;strokeColor=inherit;overflow=hidden;fillColor=none;top=0;left=0;bottom=0;right=0;pointerEvents=1;fontSize=18;fontFamily=Patrick Hand;fontSource=https%3A%2F%2Ffonts.googleapis.com%2Fcss%3Ffamily%3DPatrick%2BHand;fontStyle=1;fontColor=#FFFFFF;" vertex="1" parent="qylrMCXfZuORD8cwXGqV-29">
          <mxGeometry width="50" height="48" as="geometry">
            <mxRectangle width="50" height="48" as="alternateBounds" />
          </mxGeometry>
        </mxCell>
        <mxCell id="qylrMCXfZuORD8cwXGqV-31" value="..." style="shape=partialRectangle;html=1;whiteSpace=wrap;connectable=0;strokeColor=inherit;overflow=hidden;fillColor=none;top=0;left=0;bottom=0;right=0;pointerEvents=1;fontSize=18;fontFamily=Patrick Hand;fontSource=https%3A%2F%2Ffonts.googleapis.com%2Fcss%3Ffamily%3DPatrick%2BHand;fontStyle=1;fontColor=#FFFFFF;" vertex="1" parent="qylrMCXfZuORD8cwXGqV-29">
          <mxGeometry x="50" width="40" height="48" as="geometry">
            <mxRectangle width="40" height="48" as="alternateBounds" />
          </mxGeometry>
        </mxCell>
        <mxCell id="qylrMCXfZuORD8cwXGqV-32" value="geometry" style="shape=partialRectangle;html=1;whiteSpace=wrap;connectable=0;strokeColor=inherit;overflow=hidden;fillColor=none;top=0;left=0;bottom=0;right=0;pointerEvents=1;fontSize=18;fontFamily=Patrick Hand;fontSource=https%3A%2F%2Ffonts.googleapis.com%2Fcss%3Ffamily%3DPatrick%2BHand;fontStyle=1;fontColor=#FFFFFF;" vertex="1" parent="qylrMCXfZuORD8cwXGqV-29">
          <mxGeometry x="90" width="90" height="48" as="geometry">
            <mxRectangle width="90" height="48" as="alternateBounds" />
          </mxGeometry>
        </mxCell>
        <mxCell id="qylrMCXfZuORD8cwXGqV-33" value="" style="shape=tableRow;horizontal=0;startSize=0;swimlaneHead=0;swimlaneBody=0;strokeColor=inherit;top=0;left=0;bottom=0;right=0;collapsible=0;dropTarget=0;fillColor=none;points=[[0,0.5],[1,0.5]];portConstraint=eastwest;fontSize=16;" vertex="1" parent="qylrMCXfZuORD8cwXGqV-28">
          <mxGeometry y="48" width="180" height="38" as="geometry" />
        </mxCell>
        <mxCell id="qylrMCXfZuORD8cwXGqV-34" value="1" style="shape=partialRectangle;html=1;whiteSpace=wrap;connectable=0;strokeColor=inherit;overflow=hidden;fillColor=#FFA35C;top=0;left=0;bottom=0;right=0;pointerEvents=1;fontSize=16;fontFamily=Patrick Hand;fontSource=https%3A%2F%2Ffonts.googleapis.com%2Fcss%3Ffamily%3DPatrick%2BHand;fillStyle=hachure;sketch=1;curveFitting=1;jiggle=2;fontStyle=1;fontColor=#FFFFFF;" vertex="1" parent="qylrMCXfZuORD8cwXGqV-33">
          <mxGeometry width="50" height="38" as="geometry">
            <mxRectangle width="50" height="38" as="alternateBounds" />
          </mxGeometry>
        </mxCell>
        <mxCell id="qylrMCXfZuORD8cwXGqV-35" style="shape=partialRectangle;html=1;whiteSpace=wrap;connectable=0;strokeColor=inherit;overflow=hidden;fillColor=none;top=0;left=0;bottom=0;right=0;pointerEvents=1;fontSize=16;fontFamily=Patrick Hand;fontSource=https%3A%2F%2Ffonts.googleapis.com%2Fcss%3Ffamily%3DPatrick%2BHand;fontColor=#FFFFFF;" vertex="1" parent="qylrMCXfZuORD8cwXGqV-33">
          <mxGeometry x="50" width="40" height="38" as="geometry">
            <mxRectangle width="40" height="38" as="alternateBounds" />
          </mxGeometry>
        </mxCell>
        <mxCell id="qylrMCXfZuORD8cwXGqV-36" value="POINT(...)" style="shape=partialRectangle;html=1;whiteSpace=wrap;connectable=0;strokeColor=inherit;overflow=hidden;fillColor=none;top=0;left=0;bottom=0;right=0;pointerEvents=1;fontSize=16;fontFamily=Patrick Hand;fontSource=https%3A%2F%2Ffonts.googleapis.com%2Fcss%3Ffamily%3DPatrick%2BHand;fontColor=#FFFFFF;" vertex="1" parent="qylrMCXfZuORD8cwXGqV-33">
          <mxGeometry x="90" width="90" height="38" as="geometry">
            <mxRectangle width="90" height="38" as="alternateBounds" />
          </mxGeometry>
        </mxCell>
        <mxCell id="qylrMCXfZuORD8cwXGqV-37" value="" style="shape=tableRow;horizontal=0;startSize=0;swimlaneHead=0;swimlaneBody=0;strokeColor=inherit;top=0;left=0;bottom=0;right=0;collapsible=0;dropTarget=0;fillColor=none;points=[[0,0.5],[1,0.5]];portConstraint=eastwest;fontSize=16;" vertex="1" parent="qylrMCXfZuORD8cwXGqV-28">
          <mxGeometry y="86" width="180" height="38" as="geometry" />
        </mxCell>
        <mxCell id="qylrMCXfZuORD8cwXGqV-38" value="2" style="shape=partialRectangle;html=1;whiteSpace=wrap;connectable=0;strokeColor=inherit;overflow=hidden;fillColor=#8500FF;top=0;left=0;bottom=0;right=0;pointerEvents=1;fontSize=16;fontFamily=Patrick Hand;fontSource=https%3A%2F%2Ffonts.googleapis.com%2Fcss%3Ffamily%3DPatrick%2BHand;sketch=1;curveFitting=1;jiggle=2;fillStyle=hachure;fontStyle=1;fontColor=#FFFFFF;" vertex="1" parent="qylrMCXfZuORD8cwXGqV-37">
          <mxGeometry width="50" height="38" as="geometry">
            <mxRectangle width="50" height="38" as="alternateBounds" />
          </mxGeometry>
        </mxCell>
        <mxCell id="qylrMCXfZuORD8cwXGqV-39" style="shape=partialRectangle;html=1;whiteSpace=wrap;connectable=0;strokeColor=inherit;overflow=hidden;fillColor=none;top=0;left=0;bottom=0;right=0;pointerEvents=1;fontSize=16;fontFamily=Patrick Hand;fontSource=https%3A%2F%2Ffonts.googleapis.com%2Fcss%3Ffamily%3DPatrick%2BHand;fontColor=#FFFFFF;" vertex="1" parent="qylrMCXfZuORD8cwXGqV-37">
          <mxGeometry x="50" width="40" height="38" as="geometry">
            <mxRectangle width="40" height="38" as="alternateBounds" />
          </mxGeometry>
        </mxCell>
        <mxCell id="qylrMCXfZuORD8cwXGqV-40" value="POINT(...)" style="shape=partialRectangle;html=1;whiteSpace=wrap;connectable=0;strokeColor=inherit;overflow=hidden;fillColor=none;top=0;left=0;bottom=0;right=0;pointerEvents=1;fontSize=16;fontFamily=Patrick Hand;fontSource=https%3A%2F%2Ffonts.googleapis.com%2Fcss%3Ffamily%3DPatrick%2BHand;fontColor=#FFFFFF;" vertex="1" parent="qylrMCXfZuORD8cwXGqV-37">
          <mxGeometry x="90" width="90" height="38" as="geometry">
            <mxRectangle width="90" height="38" as="alternateBounds" />
          </mxGeometry>
        </mxCell>
        <mxCell id="qylrMCXfZuORD8cwXGqV-41" style="shape=tableRow;horizontal=0;startSize=0;swimlaneHead=0;swimlaneBody=0;strokeColor=inherit;top=0;left=0;bottom=0;right=0;collapsible=0;dropTarget=0;fillColor=none;points=[[0,0.5],[1,0.5]];portConstraint=eastwest;fontSize=16;" vertex="1" parent="qylrMCXfZuORD8cwXGqV-28">
          <mxGeometry y="124" width="180" height="38" as="geometry" />
        </mxCell>
        <mxCell id="qylrMCXfZuORD8cwXGqV-42" value="3" style="shape=partialRectangle;html=1;whiteSpace=wrap;connectable=0;strokeColor=inherit;overflow=hidden;fillColor=#66CC00;top=0;left=0;bottom=0;right=0;pointerEvents=1;fontSize=16;fontFamily=Patrick Hand;fontSource=https%3A%2F%2Ffonts.googleapis.com%2Fcss%3Ffamily%3DPatrick%2BHand;sketch=1;curveFitting=1;jiggle=2;fillStyle=hachure;fontStyle=1;fontColor=#FFFFFF;" vertex="1" parent="qylrMCXfZuORD8cwXGqV-41">
          <mxGeometry width="50" height="38" as="geometry">
            <mxRectangle width="50" height="38" as="alternateBounds" />
          </mxGeometry>
        </mxCell>
        <mxCell id="qylrMCXfZuORD8cwXGqV-43" style="shape=partialRectangle;html=1;whiteSpace=wrap;connectable=0;strokeColor=inherit;overflow=hidden;fillColor=none;top=0;left=0;bottom=0;right=0;pointerEvents=1;fontSize=16;fontFamily=Patrick Hand;fontSource=https%3A%2F%2Ffonts.googleapis.com%2Fcss%3Ffamily%3DPatrick%2BHand;fontColor=#FFFFFF;" vertex="1" parent="qylrMCXfZuORD8cwXGqV-41">
          <mxGeometry x="50" width="40" height="38" as="geometry">
            <mxRectangle width="40" height="38" as="alternateBounds" />
          </mxGeometry>
        </mxCell>
        <mxCell id="qylrMCXfZuORD8cwXGqV-44" value="POINT&lt;span style=&quot;background-color: initial;&quot;&gt;(...)&lt;/span&gt;" style="shape=partialRectangle;html=1;whiteSpace=wrap;connectable=0;strokeColor=inherit;overflow=hidden;fillColor=none;top=0;left=0;bottom=0;right=0;pointerEvents=1;fontSize=16;fontFamily=Patrick Hand;fontSource=https%3A%2F%2Ffonts.googleapis.com%2Fcss%3Ffamily%3DPatrick%2BHand;fontColor=#FFFFFF;" vertex="1" parent="qylrMCXfZuORD8cwXGqV-41">
          <mxGeometry x="90" width="90" height="38" as="geometry">
            <mxRectangle width="90" height="38" as="alternateBounds" />
          </mxGeometry>
        </mxCell>
        <mxCell id="qylrMCXfZuORD8cwXGqV-45" style="shape=tableRow;horizontal=0;startSize=0;swimlaneHead=0;swimlaneBody=0;strokeColor=inherit;top=0;left=0;bottom=0;right=0;collapsible=0;dropTarget=0;fillColor=none;points=[[0,0.5],[1,0.5]];portConstraint=eastwest;fontSize=16;" vertex="1" parent="qylrMCXfZuORD8cwXGqV-28">
          <mxGeometry y="162" width="180" height="38" as="geometry" />
        </mxCell>
        <mxCell id="qylrMCXfZuORD8cwXGqV-46" value="4" style="shape=partialRectangle;html=1;whiteSpace=wrap;connectable=0;strokeColor=inherit;overflow=hidden;fillColor=#FF50AF;top=0;left=0;bottom=0;right=0;pointerEvents=1;fontSize=16;fontFamily=Patrick Hand;fontSource=https%3A%2F%2Ffonts.googleapis.com%2Fcss%3Ffamily%3DPatrick%2BHand;sketch=1;curveFitting=1;jiggle=2;fillStyle=hachure;fontStyle=1;fontColor=#FFFFFF;" vertex="1" parent="qylrMCXfZuORD8cwXGqV-45">
          <mxGeometry width="50" height="38" as="geometry">
            <mxRectangle width="50" height="38" as="alternateBounds" />
          </mxGeometry>
        </mxCell>
        <mxCell id="qylrMCXfZuORD8cwXGqV-47" style="shape=partialRectangle;html=1;whiteSpace=wrap;connectable=0;strokeColor=inherit;overflow=hidden;fillColor=none;top=0;left=0;bottom=0;right=0;pointerEvents=1;fontSize=16;fontFamily=Patrick Hand;fontSource=https%3A%2F%2Ffonts.googleapis.com%2Fcss%3Ffamily%3DPatrick%2BHand;fontColor=#FFFFFF;" vertex="1" parent="qylrMCXfZuORD8cwXGqV-45">
          <mxGeometry x="50" width="40" height="38" as="geometry">
            <mxRectangle width="40" height="38" as="alternateBounds" />
          </mxGeometry>
        </mxCell>
        <mxCell id="qylrMCXfZuORD8cwXGqV-48" value="POINT(...)" style="shape=partialRectangle;html=1;whiteSpace=wrap;connectable=0;strokeColor=inherit;overflow=hidden;fillColor=none;top=0;left=0;bottom=0;right=0;pointerEvents=1;fontSize=16;fontFamily=Patrick Hand;fontSource=https%3A%2F%2Ffonts.googleapis.com%2Fcss%3Ffamily%3DPatrick%2BHand;fontColor=#FFFFFF;" vertex="1" parent="qylrMCXfZuORD8cwXGqV-45">
          <mxGeometry x="90" width="90" height="38" as="geometry">
            <mxRectangle width="90" height="38" as="alternateBounds" />
          </mxGeometry>
        </mxCell>
        <mxCell id="qylrMCXfZuORD8cwXGqV-49" value="1" style="strokeWidth=2;html=1;shape=mxgraph.flowchart.start_2;whiteSpace=wrap;perimeterSpacing=0;fontFamily=Patrick Hand;fontSource=https%3A%2F%2Ffonts.googleapis.com%2Fcss%3Ffamily%3DPatrick%2BHand;fontSize=20;fillColor=#FFA35C;strokeColor=#FFFFFF;fontColor=#FFFFFF;" vertex="1" parent="qylrMCXfZuORD8cwXGqV-1">
          <mxGeometry x="10" y="183" width="30" height="30" as="geometry" />
        </mxCell>
        <mxCell id="qylrMCXfZuORD8cwXGqV-50" value="2" style="strokeWidth=2;html=1;shape=mxgraph.flowchart.start_2;whiteSpace=wrap;perimeterSpacing=0;fontFamily=Patrick Hand;fontSource=https%3A%2F%2Ffonts.googleapis.com%2Fcss%3Ffamily%3DPatrick%2BHand;fontSize=20;fillColor=#8500ff;strokeColor=#FFFFFF;fontColor=#FFFFFF;" vertex="1" parent="qylrMCXfZuORD8cwXGqV-1">
          <mxGeometry x="150" y="243" width="30" height="30" as="geometry" />
        </mxCell>
        <mxCell id="qylrMCXfZuORD8cwXGqV-51" value="4" style="strokeWidth=2;html=1;shape=mxgraph.flowchart.start_2;whiteSpace=wrap;perimeterSpacing=0;fontFamily=Patrick Hand;fontSource=https%3A%2F%2Ffonts.googleapis.com%2Fcss%3Ffamily%3DPatrick%2BHand;fontSize=20;fillColor=#FF50AF;fillStyle=auto;strokeColor=#FFFFFF;fontColor=#FFFFFF;" vertex="1" parent="qylrMCXfZuORD8cwXGqV-1">
          <mxGeometry x="90" y="43" width="30" height="30" as="geometry" />
        </mxCell>
        <mxCell id="qylrMCXfZuORD8cwXGqV-52" value="3" style="strokeWidth=2;html=1;shape=mxgraph.flowchart.start_2;whiteSpace=wrap;perimeterSpacing=0;fontFamily=Patrick Hand;fontSource=https%3A%2F%2Ffonts.googleapis.com%2Fcss%3Ffamily%3DPatrick%2BHand;fontSize=20;fillColor=#66CC00;strokeColor=#FFFFFF;fontColor=#FFFFFF;" vertex="1" parent="qylrMCXfZuORD8cwXGqV-1">
          <mxGeometry x="90" y="183" width="30" height="30" as="geometry" />
        </mxCell>
        <mxCell id="qylrMCXfZuORD8cwXGqV-53" style="rounded=0;orthogonalLoop=1;jettySize=auto;html=1;exitX=0.855;exitY=0.855;exitDx=0;exitDy=0;exitPerimeter=0;entryX=0.145;entryY=0.145;entryDx=0;entryDy=0;entryPerimeter=0;endArrow=classic;endFill=1;sketch=1;curveFitting=1;jiggle=2;jumpStyle=none;curved=1;endSize=10;targetPerimeterSpacing=0;strokeColor=#FFFFFF;" edge="1" parent="qylrMCXfZuORD8cwXGqV-1" source="qylrMCXfZuORD8cwXGqV-49" target="qylrMCXfZuORD8cwXGqV-50">
          <mxGeometry relative="1" as="geometry" />
        </mxCell>
        <mxCell id="qylrMCXfZuORD8cwXGqV-54" style="rounded=0;orthogonalLoop=1;jettySize=auto;html=1;exitX=1;exitY=0.5;exitDx=0;exitDy=0;exitPerimeter=0;entryX=0;entryY=0.5;entryDx=0;entryDy=0;entryPerimeter=0;endArrow=classic;endFill=1;sketch=1;curveFitting=1;jiggle=2;curved=0;endSize=10;strokeColor=#FFFFFF;" edge="1" parent="qylrMCXfZuORD8cwXGqV-1" source="qylrMCXfZuORD8cwXGqV-49" target="qylrMCXfZuORD8cwXGqV-52">
          <mxGeometry relative="1" as="geometry" />
        </mxCell>
        <mxCell id="qylrMCXfZuORD8cwXGqV-55" style="rounded=0;orthogonalLoop=1;jettySize=auto;html=1;entryX=0.855;entryY=0.855;entryDx=0;entryDy=0;entryPerimeter=0;endArrow=classic;endFill=1;sketch=1;curveFitting=1;jiggle=2;endSize=10;exitX=0.5;exitY=0;exitDx=0;exitDy=0;exitPerimeter=0;strokeColor=#FFFFFF;" edge="1" parent="qylrMCXfZuORD8cwXGqV-1" source="qylrMCXfZuORD8cwXGqV-50" target="qylrMCXfZuORD8cwXGqV-51">
          <mxGeometry relative="1" as="geometry">
            <mxPoint x="170" y="230" as="sourcePoint" />
          </mxGeometry>
        </mxCell>
        <mxCell id="qylrMCXfZuORD8cwXGqV-56" style="rounded=0;orthogonalLoop=1;jettySize=auto;html=1;exitX=0.5;exitY=0;exitDx=0;exitDy=0;exitPerimeter=0;entryX=0.5;entryY=1;entryDx=0;entryDy=0;entryPerimeter=0;endArrow=none;endFill=0;sketch=1;curveFitting=1;jiggle=2;startArrow=classic;startFill=1;startSize=10;strokeColor=#FFFFFF;" edge="1" parent="qylrMCXfZuORD8cwXGqV-1" source="qylrMCXfZuORD8cwXGqV-52" target="qylrMCXfZuORD8cwXGqV-51">
          <mxGeometry relative="1" as="geometry" />
        </mxCell>
        <mxCell id="qylrMCXfZuORD8cwXGqV-57" value="optional" style="text;html=1;align=center;verticalAlign=middle;whiteSpace=wrap;rounded=0;fontFamily=Patrick Hand;fontSource=https%3A%2F%2Ffonts.googleapis.com%2Fcss%3Ffamily%3DPatrick%2BHand;fontStyle=2;fontColor=#4500FF;strokeColor=none;fontSize=17;" vertex="1" parent="qylrMCXfZuORD8cwXGqV-1">
          <mxGeometry x="767" y="77" width="60" height="30" as="geometry" />
        </mxCell>
        <mxCell id="qylrMCXfZuORD8cwXGqV-58" value="row numbers" style="text;html=1;align=center;verticalAlign=middle;whiteSpace=wrap;rounded=0;fontFamily=Patrick Hand;fontSource=https%3A%2F%2Ffonts.googleapis.com%2Fcss%3Ffamily%3DPatrick%2BHand;fontStyle=2;fontColor=#4500FF;strokeColor=none;fontSize=17;" vertex="1" parent="qylrMCXfZuORD8cwXGqV-1">
          <mxGeometry x="170" y="136" width="70" height="44" as="geometry" />
        </mxCell>
        <mxCell id="qylrMCXfZuORD8cwXGqV-59" value="attributes" style="text;html=1;align=center;verticalAlign=middle;whiteSpace=wrap;rounded=0;fontFamily=Patrick Hand;fontSource=https%3A%2F%2Ffonts.googleapis.com%2Fcss%3Ffamily%3DPatrick%2BHand;fontStyle=2;fontColor=#4500FF;strokeColor=none;fontSize=17;" vertex="1" parent="qylrMCXfZuORD8cwXGqV-1">
          <mxGeometry x="197" y="27" width="70" height="30" as="geometry" />
        </mxCell>
        <mxCell id="qylrMCXfZuORD8cwXGqV-60" value="attributes" style="text;html=1;align=center;verticalAlign=middle;whiteSpace=wrap;rounded=0;fontFamily=Patrick Hand;fontSource=https%3A%2F%2Ffonts.googleapis.com%2Fcss%3Ffamily%3DPatrick%2BHand;fontStyle=2;fontColor=#4500FF;strokeColor=none;fontSize=17;" vertex="1" parent="qylrMCXfZuORD8cwXGqV-1">
          <mxGeometry x="697" y="27" width="70" height="30" as="geometry" />
        </mxCell>
        <mxCell id="qylrMCXfZuORD8cwXGqV-61" value="Node table" style="text;html=1;align=center;verticalAlign=middle;whiteSpace=wrap;rounded=0;fontSize=22;fontStyle=1;fontFamily=Patrick Hand;fontSource=https%3A%2F%2Ffonts.googleapis.com%2Fcss%3Ffamily%3DPatrick%2BHand;fontColor=#FFFFFF;" vertex="1" parent="qylrMCXfZuORD8cwXGqV-1">
          <mxGeometry x="347" y="48" width="100" height="30" as="geometry" />
        </mxCell>
        <mxCell id="qylrMCXfZuORD8cwXGqV-62" value="Edge table" style="text;html=1;align=center;verticalAlign=middle;whiteSpace=wrap;rounded=0;fontSize=22;fontStyle=1;fontFamily=Patrick Hand;fontSource=https%3A%2F%2Ffonts.googleapis.com%2Fcss%3Ffamily%3DPatrick%2BHand;fontColor=#FFFFFF;" vertex="1" parent="qylrMCXfZuORD8cwXGqV-1">
          <mxGeometry x="477" y="48" width="100" height="30" as="geometry" />
        </mxCell>
        <mxCell id="qylrMCXfZuORD8cwXGqV-63" value="" style="curved=1;endArrow=classic;html=1;rounded=0;entryX=0;entryY=0.5;entryDx=0;entryDy=0;sketch=1;curveFitting=1;jiggle=2;strokeColor=#4500FF;dashed=1;fontColor=#4500FF;" edge="1" parent="qylrMCXfZuORD8cwXGqV-1" target="qylrMCXfZuORD8cwXGqV-60">
          <mxGeometry width="50" height="50" relative="1" as="geometry">
            <mxPoint x="597" y="77" as="sourcePoint" />
            <mxPoint x="657" y="57" as="targetPoint" />
            <Array as="points">
              <mxPoint x="597" y="67" />
              <mxPoint x="617" y="57" />
              <mxPoint x="657" y="67" />
              <mxPoint x="657" y="42" />
            </Array>
          </mxGeometry>
        </mxCell>
        <mxCell id="qylrMCXfZuORD8cwXGqV-64" value="" style="curved=1;endArrow=classic;html=1;rounded=0;entryX=1;entryY=0.5;entryDx=0;entryDy=0;sketch=1;curveFitting=1;jiggle=2;strokeColor=#4500FF;dashed=1;fontColor=#4500FF;" edge="1" parent="qylrMCXfZuORD8cwXGqV-1" target="qylrMCXfZuORD8cwXGqV-59">
          <mxGeometry width="50" height="50" relative="1" as="geometry">
            <mxPoint x="337" y="77" as="sourcePoint" />
            <mxPoint x="277" y="48" as="targetPoint" />
            <Array as="points">
              <mxPoint x="327" y="57" />
              <mxPoint x="287" y="67" />
              <mxPoint x="297" y="42" />
            </Array>
          </mxGeometry>
        </mxCell>
        <mxCell id="qylrMCXfZuORD8cwXGqV-65" value="" style="curved=1;endArrow=classic;html=1;rounded=0;sketch=1;curveFitting=1;jiggle=2;strokeColor=#4500FF;dashed=1;exitX=0;exitY=0.5;exitDx=0;exitDy=0;fontColor=#4500FF;entryX=0.5;entryY=0;entryDx=0;entryDy=0;" edge="1" parent="qylrMCXfZuORD8cwXGqV-1" source="qylrMCXfZuORD8cwXGqV-29" target="qylrMCXfZuORD8cwXGqV-58">
          <mxGeometry width="50" height="50" relative="1" as="geometry">
            <mxPoint x="247" y="182" as="sourcePoint" />
            <mxPoint x="190" y="120" as="targetPoint" />
            <Array as="points">
              <mxPoint x="237" y="162" />
              <mxPoint x="247" y="77" />
              <mxPoint x="217" y="107" />
            </Array>
          </mxGeometry>
        </mxCell>
        <mxCell id="qylrMCXfZuORD8cwXGqV-66" value="" style="curved=1;endArrow=classic;html=1;rounded=0;sketch=1;curveFitting=1;jiggle=2;strokeColor=#4500FF;dashed=1;entryX=0.25;entryY=1;entryDx=0;entryDy=0;fontColor=#4500FF;" edge="1" parent="qylrMCXfZuORD8cwXGqV-1" target="qylrMCXfZuORD8cwXGqV-57">
          <mxGeometry width="50" height="50" relative="1" as="geometry">
            <mxPoint x="727" y="97" as="sourcePoint" />
            <mxPoint x="757" y="165" as="targetPoint" />
            <Array as="points">
              <mxPoint x="757" y="127" />
              <mxPoint x="807" y="127" />
              <mxPoint x="777" y="157" />
            </Array>
          </mxGeometry>
        </mxCell>
      </root>
    </mxGraphModel>
  </diagram>
</mxfile>
